<svg xmlns="http://www.w3.org/2000/svg" xmlns:xlink="http://www.w3.org/1999/xlink" width="500" zoomAndPan="magnify" viewBox="0 0 375 374.999991" height="500" preserveAspectRatio="xMidYMid meet" version="1.0"><defs><g/><clipPath id="e9fa6544fe"><path d="M 107 145.875 L 136 145.875 L 136 172 L 107 172 Z M 107 145.875 " clip-rule="nonzero"/></clipPath><clipPath id="4888dcf9fb"><path d="M 107 203 L 136 203 L 136 229.875 L 107 229.875 Z M 107 203 " clip-rule="nonzero"/></clipPath><clipPath id="ada4be8e2b"><path d="M 58.3125 180 L 76 180 L 76 196 L 58.3125 196 Z M 58.3125 180 " clip-rule="nonzero"/></clipPath><clipPath id="3f8d9ad04a"><rect x="0" width="143" y="0" height="65"/></clipPath><clipPath id="c11e0ba2a3"><rect x="0" width="120" y="0" height="65"/></clipPath></defs><path fill="#02153d" d="M 106.742188 176.585938 C 106.363281 180.058594 106.152344 183.78125 106.152344 187.742188 C 106.152344 191.699219 106.363281 195.425781 106.742188 198.894531 C 111.550781 199.125 116.519531 199.246094 121.582031 199.246094 C 126.640625 199.246094 131.613281 199.125 136.417969 198.894531 C 136.796875 195.425781 137.007812 191.699219 137.007812 187.742188 C 137.007812 183.78125 136.796875 180.058594 136.417969 176.585938 C 131.613281 176.355469 126.640625 176.238281 121.582031 176.238281 C 116.519531 176.238281 111.550781 176.355469 106.742188 176.585938 Z M 106.742188 176.585938 " fill-opacity="1" fill-rule="nonzero"/><path fill="#02153d" d="M 82.863281 173.988281 C 88.558594 173.152344 94.792969 172.507812 101.371094 172.078125 C 102.304688 166.085938 103.777344 160.582031 105.726562 155.910156 C 107.144531 152.511719 108.761719 149.691406 110.546875 147.46875 C 97.621094 151.15625 87.257812 161.15625 82.863281 173.988281 Z M 82.863281 173.988281 " fill-opacity="1" fill-rule="nonzero"/><g clip-path="url(#e9fa6544fe)"><path fill="#02153d" d="M 121.582031 171.433594 C 126.402344 171.433594 131.144531 171.539062 135.757812 171.746094 C 133.066406 155.449219 126.5625 145.929688 121.582031 145.929688 C 116.597656 145.929688 110.09375 155.449219 107.402344 171.746094 C 112.015625 171.539062 116.761719 171.433594 121.582031 171.433594 Z M 121.582031 171.433594 " fill-opacity="1" fill-rule="nonzero"/></g><path fill="#02153d" d="M 161.699219 196.375 C 162.273438 193.589844 162.578125 190.699219 162.578125 187.742188 C 162.578125 184.78125 162.273438 181.894531 161.699219 179.109375 C 155.867188 178.15625 149.359375 177.425781 142.414062 176.941406 C 142.777344 180.4375 142.960938 184.054688 142.960938 187.742188 C 142.960938 191.425781 142.777344 195.046875 142.414062 198.542969 C 149.359375 198.058594 155.867188 197.328125 161.699219 196.375 Z M 161.699219 196.375 " fill-opacity="1" fill-rule="nonzero"/><path fill="#02153d" d="M 166.765625 175.066406 C 167.664062 175.238281 168.550781 175.414062 169.414062 175.59375 C 175.527344 176.871094 180.398438 178.375 183.976562 180.066406 C 180.210938 166.761719 166.855469 155.652344 148.828125 149.984375 C 151.03125 151.535156 153.113281 153.289062 155.054688 155.230469 C 160.664062 160.851562 164.644531 167.65625 166.765625 175.066406 Z M 166.765625 175.066406 " fill-opacity="1" fill-rule="nonzero"/><path fill="#02153d" d="M 81.460938 179.109375 C 80.886719 181.894531 80.582031 184.78125 80.582031 187.742188 C 80.582031 190.699219 80.886719 193.589844 81.460938 196.375 C 87.292969 197.328125 93.800781 198.058594 100.746094 198.542969 C 100.386719 195.046875 100.199219 191.425781 100.199219 187.742188 C 100.199219 184.054688 100.386719 180.4375 100.746094 176.941406 C 93.800781 177.425781 87.292969 178.15625 81.460938 179.109375 Z M 81.460938 179.109375 " fill-opacity="1" fill-rule="nonzero"/><path fill="#02153d" d="M 141.789062 172.078125 C 148.367188 172.507812 154.601562 173.152344 160.296875 173.988281 C 155.902344 161.15625 145.539062 151.15625 132.613281 147.46875 C 134.398438 149.691406 136.015625 152.511719 137.433594 155.910156 C 139.386719 160.582031 140.855469 166.085938 141.789062 172.078125 Z M 141.789062 172.078125 " fill-opacity="1" fill-rule="nonzero"/><g clip-path="url(#4888dcf9fb)"><path fill="#02153d" d="M 121.582031 204.050781 C 116.761719 204.050781 112.015625 203.941406 107.402344 203.738281 C 110.09375 220.035156 116.597656 229.554688 121.582031 229.554688 C 126.5625 229.554688 133.066406 220.035156 135.757812 203.738281 C 131.144531 203.941406 126.402344 204.050781 121.582031 204.050781 Z M 121.582031 204.050781 " fill-opacity="1" fill-rule="nonzero"/></g><path fill="#02153d" d="M 166.765625 200.414062 C 164.644531 207.828125 160.664062 214.628906 155.054688 220.253906 C 153.113281 222.195312 151.03125 223.945312 148.828125 225.5 C 166.855469 219.828125 180.210938 208.722656 183.976562 195.417969 C 180.398438 197.105469 175.527344 198.609375 169.414062 199.890625 C 168.550781 200.070312 167.664062 200.246094 166.765625 200.414062 Z M 166.765625 200.414062 " fill-opacity="1" fill-rule="nonzero"/><path fill="#02153d" d="M 167.925781 180.265625 C 168.328125 182.714844 168.535156 185.214844 168.535156 187.742188 C 168.535156 190.269531 168.328125 192.765625 167.925781 195.214844 C 179.613281 192.746094 184.851562 189.6875 184.851562 187.742188 C 184.851562 185.796875 179.613281 182.738281 167.925781 180.265625 Z M 167.925781 180.265625 " fill-opacity="1" fill-rule="nonzero"/><path fill="#02153d" d="M 76.398438 175.066406 C 78.515625 167.65625 82.496094 160.851562 88.109375 155.230469 C 90.046875 153.289062 92.128906 151.535156 94.332031 149.984375 C 76.304688 155.652344 62.949219 166.761719 59.183594 180.066406 C 62.761719 178.375 67.632812 176.871094 73.746094 175.59375 C 74.609375 175.414062 75.496094 175.238281 76.398438 175.066406 Z M 76.398438 175.066406 " fill-opacity="1" fill-rule="nonzero"/><path fill="#02153d" d="M 160.296875 201.492188 C 154.601562 202.332031 148.367188 202.972656 141.789062 203.40625 C 140.855469 209.398438 139.386719 214.902344 137.433594 219.574219 C 136.015625 222.972656 134.398438 225.789062 132.613281 228.011719 C 145.539062 224.324219 155.902344 214.324219 160.296875 201.492188 Z M 160.296875 201.492188 " fill-opacity="1" fill-rule="nonzero"/><g clip-path="url(#ada4be8e2b)"><path fill="#02153d" d="M 74.628906 187.742188 C 74.628906 185.214844 74.835938 182.714844 75.234375 180.265625 C 63.546875 182.738281 58.3125 185.796875 58.3125 187.742188 C 58.3125 189.6875 63.546875 192.746094 75.234375 195.214844 C 74.835938 192.765625 74.628906 190.269531 74.628906 187.742188 Z M 74.628906 187.742188 " fill-opacity="1" fill-rule="nonzero"/></g><path fill="#02153d" d="M 101.371094 203.40625 C 94.792969 202.972656 88.558594 202.332031 82.863281 201.492188 C 87.257812 214.324219 97.621094 224.324219 110.546875 228.011719 C 108.761719 225.789062 107.144531 222.972656 105.726562 219.574219 C 103.777344 214.902344 102.304688 209.398438 101.371094 203.40625 Z M 101.371094 203.40625 " fill-opacity="1" fill-rule="nonzero"/><path fill="#02153d" d="M 76.398438 200.414062 C 75.496094 200.246094 74.609375 200.070312 73.746094 199.890625 C 67.632812 198.609375 62.761719 197.105469 59.183594 195.417969 C 62.949219 208.722656 76.304688 219.828125 94.332031 225.5 C 92.128906 223.945312 90.046875 222.195312 88.109375 220.253906 C 82.496094 214.628906 78.515625 207.828125 76.398438 200.414062 Z M 76.398438 200.414062 " fill-opacity="1" fill-rule="nonzero"/><g transform="matrix(1, 0, 0, 1, 183, 133)"><g clip-path="url(#3f8d9ad04a)"><g fill="#02153d" fill-opacity="1"><g transform="translate(1.859055, 48.203854)"><g><path d="M 20.363281 -31.042969 L 6.410156 -31.042969 L -0.175781 0 L 8.546875 0 L 10.8125 -10.726562 L 15.347656 -10.726562 C 17.789062 -10.726562 19.402344 -10.203125 18.75 -6.671875 L 18.183594 -3.53125 C 17.875 -1.789062 17.832031 -0.828125 18.050781 0 L 27.03125 0 C 26.773438 -0.742188 26.726562 -1.832031 26.988281 -3.53125 L 27.601562 -7.28125 C 28.125 -10.332031 27.601562 -12.949219 24.460938 -14.257812 C 28.644531 -15.609375 30.566406 -18.398438 31.175781 -21.148438 C 32.394531 -26.683594 29.34375 -31.042969 20.363281 -31.042969 Z M 12.164062 -17.09375 L 13.691406 -24.242188 L 18.921875 -24.242188 C 21.496094 -24.242188 22.542969 -22.890625 22.019531 -20.363281 C 21.625 -18.398438 19.96875 -17.09375 17.003906 -17.09375 Z M 12.164062 -17.09375 "/></g></g></g><g fill="#02153d" fill-opacity="1"><g transform="translate(31.681609, 48.203854)"><g><path d="M 30.347656 0 L 25.507812 -31.042969 L 15.042969 -31.042969 L -2.574219 0 L 6.582031 0 L 8.71875 -4.054688 L 20.886719 -4.054688 L 21.320312 0 Z M 16.351562 -18.398438 C 17.179688 -19.96875 18.007812 -21.625 18.835938 -23.285156 C 18.96875 -21.625 19.097656 -19.96875 19.273438 -18.398438 L 20.058594 -11.25 L 12.558594 -11.25 Z M 16.351562 -18.398438 "/></g></g></g><g fill="#02153d" fill-opacity="1"><g transform="translate(63.94578, 48.203854)"><g><path d="M 19.664062 -31.042969 L 6.410156 -31.042969 L -0.175781 0 L 8.546875 0 L 10.550781 -9.417969 L 16.832031 -9.417969 C 24.113281 -9.417969 29.257812 -13.691406 30.476562 -19.183594 C 32.179688 -26.773438 27.863281 -31.042969 19.664062 -31.042969 Z M 21.886719 -19.925781 C 21.496094 -17.875 19.621094 -16.742188 17.308594 -16.742188 L 12.078125 -16.742188 L 13.558594 -23.71875 L 18.792969 -23.71875 C 21.101562 -23.71875 22.410156 -22.585938 21.886719 -19.925781 Z M 21.886719 -19.925781 "/></g></g></g><g fill="#02153d" fill-opacity="1"><g transform="translate(93.46315, 48.203854)"><g><path d="M 8.503906 0 L 15.128906 -31.042969 L 6.410156 -31.042969 L -0.21875 0 Z M 8.503906 0 "/></g></g></g><g fill="#02153d" fill-opacity="1"><g transform="translate(106.543224, 48.203854)"><g><path d="M 19.316406 -31.042969 L 6.410156 -31.042969 L -0.175781 0 L 13.820312 0 C 25.636719 0 30.566406 -5.492188 32.441406 -14.34375 C 34.488281 -24.066406 29.691406 -31.042969 19.316406 -31.042969 Z M 23.71875 -15.128906 C 22.453125 -9.070312 18.921875 -7.324219 14.78125 -7.324219 L 10.117188 -7.324219 L 13.558594 -23.71875 L 18.269531 -23.71875 C 22.410156 -23.71875 24.984375 -21.191406 23.71875 -15.128906 Z M 23.71875 -15.128906 "/></g></g></g></g></g><g transform="matrix(1, 0, 0, 1, 184, 169)"><g clip-path="url(#c11e0ba2a3)"><g fill="#d9001d" fill-opacity="1"><g transform="translate(0.859055, 48.336933)"><g><path d="M 34.96875 -22.105469 C 33.179688 -18.007812 31.304688 -13.734375 29.691406 -9.679688 C 29.867188 -13.734375 30 -18.007812 30.042969 -22.105469 L 30.085938 -31.042969 L 21.496094 -31.042969 L 17.789062 -22.105469 C 16.089844 -18.007812 14.34375 -13.691406 12.820312 -9.636719 C 12.949219 -14.519531 12.949219 -17.703125 12.863281 -22.105469 L 12.730469 -31.042969 L 3.707031 -31.042969 L 5.492188 0 L 15.261719 0 L 19.140625 -9.199219 C 20.710938 -12.949219 22.28125 -16.785156 23.675781 -20.535156 C 23.5 -16.785156 23.414062 -12.949219 23.371094 -9.199219 L 23.328125 0 L 33.09375 0 L 48.050781 -31.042969 L 38.847656 -31.042969 Z M 34.96875 -22.105469 "/></g></g></g><g fill="#d9001d" fill-opacity="1"><g transform="translate(44.764504, 48.336933)"><g><path d="M 8.503906 0 L 15.128906 -31.042969 L 6.410156 -31.042969 L -0.21875 0 Z M 8.503906 0 "/></g></g></g><g fill="#d9001d" fill-opacity="1"><g transform="translate(57.844578, 48.336933)"><g><path d="M 20.363281 -31.042969 L 6.410156 -31.042969 L -0.175781 0 L 8.546875 0 L 10.8125 -10.726562 L 15.347656 -10.726562 C 17.789062 -10.726562 19.402344 -10.203125 18.75 -6.671875 L 18.183594 -3.53125 C 17.875 -1.789062 17.832031 -0.828125 18.050781 0 L 27.03125 0 C 26.773438 -0.742188 26.726562 -1.832031 26.988281 -3.53125 L 27.601562 -7.28125 C 28.125 -10.332031 27.601562 -12.949219 24.460938 -14.257812 C 28.644531 -15.609375 30.566406 -18.398438 31.175781 -21.148438 C 32.394531 -26.683594 29.34375 -31.042969 20.363281 -31.042969 Z M 12.164062 -17.09375 L 13.691406 -24.242188 L 18.921875 -24.242188 C 21.496094 -24.242188 22.542969 -22.890625 22.019531 -20.363281 C 21.625 -18.398438 19.96875 -17.09375 17.003906 -17.09375 Z M 12.164062 -17.09375 "/></g></g></g><g fill="#d9001d" fill-opacity="1"><g transform="translate(87.885139, 48.336933)"><g><path d="M 30.914062 -31.042969 L 6.410156 -31.042969 L -0.21875 0 L 24.285156 0 L 25.941406 -7.761719 L 10.160156 -7.761719 L 11.03125 -11.945312 L 25.464844 -11.945312 L 26.988281 -19.183594 L 12.601562 -19.183594 L 13.472656 -23.285156 L 29.257812 -23.285156 Z M 30.914062 -31.042969 "/></g></g></g></g></g></svg>